<?xml version="1.0" standalone="no"?><!DOCTYPE svg PUBLIC "-//W3C//DTD SVG 1.1//EN" "http://www.w3.org/Graphics/SVG/1.1/DTD/svg11.dtd"><svg t="1605188617520" class="icon" viewBox="0 0 1024 1024" version="1.1" xmlns="http://www.w3.org/2000/svg" p-id="2892" xmlns:xlink="http://www.w3.org/1999/xlink" width="200" height="200"><defs><style type="text/css"></style></defs><path d="M1000.448 412.672c-21.504-28.672-53.76-45.056-89.088-45.056h-227.328c-1.024 0-1.536-0.512-1.536-1.024s-0.512-1.024 0-2.048c6.656-15.872 10.24-30.72 11.264-39.424l3.584-15.36c16.384-66.56 13.824-135.68-8.192-200.704l-7.168-19.968c-14.848-45.056-58.88-76.288-106.496-76.288h-3.072c-61.952 0-116.224 52.736-116.224 112.64V153.6c0 136.192-100.864 239.104-235.008 239.104H113.152C52.736 392.704 0 449.024 0 513.024v385.536c0 61.952 50.688 112.64 113.152 113.152h679.424c51.2-0.512 95.744-34.816 108.544-84.48l118.784-413.696c9.728-34.304 2.56-72.192-19.456-100.864zM517.12 153.6v-28.16c0-26.624 26.624-51.712 55.296-51.712h2.56c22.016 0.512 41.472 14.848 49.152 35.84l7.168 19.968c17.92 53.76 20.48 111.616 6.656 166.4l-4.096 17.92-1.024 6.144c-0.512 8.192-9.216 29.696-16.896 42.496-5.12 8.192-7.68 17.408-7.68 27.648v17.408c0 12.288 9.728 22.016 22.016 22.016h281.6c15.872 0 30.72 7.68 40.448 20.992 10.24 13.312 13.824 31.232 9.216 47.616l-118.784 414.208c-6.144 23.04-26.624 39.424-50.688 39.936H294.912V444.928c133.12-32.256 222.208-148.48 222.208-291.328zM233.984 950.784H113.152c-28.672 0-52.224-23.552-52.224-52.224v-385.536c0-31.232 25.088-59.392 52.224-59.392h108.544c4.096 0 8.192 0 12.8-0.512v495.616c-0.512 1.024-0.512 1.536-0.512 2.048z" p-id="2893"></path></svg>